<svg id="Layer_1" data-name="Layer 1" xmlns="http://www.w3.org/2000/svg" viewBox="0 0 841.89 595.28"><defs><style>.cls-1{fill:#f5f5f5;}</style></defs><title>Artboard 1</title><path class="cls-1" d="M506.51,373.21c-7.72,0-15-2-19.45-4.5a.73.73,0,0,1-.37-.64V275.49a.73.73,0,0,1,.72-.72h9.34a.73.73,0,0,1,.72.72v31.72a29.14,29.14,0,0,1,13.37-3c15.6,0,26.12,12.88,26.12,33.06C537,358.85,526.44,373.21,506.51,373.21Zm1.6-62.41a24.51,24.51,0,0,0-10.22,2.28.74.74,0,0,0-.42.67v50.3a.71.71,0,0,0,.44.68,25.39,25.39,0,0,0,9,1.54c13.74,0,19.19-11.63,19.19-28.35S519.63,310.8,508.11,310.8Zm63,62.41c-16,0-25.39-6.94-25.39-20.18,0-16.1,15.85-22.29,37.4-24.4v-4.08c0-9.16-5-13.25-14.24-13.25a37.34,37.34,0,0,0-16,3.85.7.7,0,0,1-1-.37l-2.07-5.33a.72.72,0,0,1,.34-.92A46.94,46.94,0,0,1,569.88,304c14.49,0,23.4,6.81,23.4,21.67v42.39a.73.73,0,0,1-.39.66C587.58,371.44,579.82,373.21,571.12,373.21Zm12-38.88c-17,2-27,6.69-27,18.45,0,9,5.57,14.11,16,14.11a26.33,26.33,0,0,0,10.62-2,.72.72,0,0,0,.4-.66ZM647.6,372a.72.72,0,0,1-.72-.72V325.91c0-10-4.09-15-15-15a29.1,29.1,0,0,0-11.3,2,.73.73,0,0,0-.46.68v57.6a.72.72,0,0,1-.72.72H610a.72.72,0,0,1-.72-.72V309.18a.72.72,0,0,1,.42-.67A56.24,56.24,0,0,1,631.89,304c18,0,25.88,7.8,25.88,21.92v45.34a.72.72,0,0,1-.72.72Zm63.63,0a.69.69,0,0,1-.57-.28l-26-33.77h-.24v33.33a.72.72,0,0,1-.72.72h-9.21a.72.72,0,0,1-.72-.72V275.49a.72.72,0,0,1,.72-.72h9.21a.73.73,0,0,1,.72.72v61.07h.24l24.55-31.05a.72.72,0,0,1,.57-.28h10.11a.73.73,0,0,1,.55,1.19l-25.75,30.51,28.24,33.86a.72.72,0,0,1-.55,1.18ZM276.53,240.41c0-40.89-45.82-66-78.68-66-22,0-35.73,10.78-35.73,28.13v11.07h-9.25c-16.24,0-33.42,17.25-33.42,33.55V371.32A11.65,11.65,0,0,0,131.09,383h30.16c.18,0,.35,0,.53,0a11.63,11.63,0,0,0,11.11-11.59s0-119.89,0-146.94H198a25.13,25.13,0,0,1,25.1,25.11V371.32A11.65,11.65,0,0,0,234.76,383h30.18a11.65,11.65,0,0,0,11.64-11.64C276.59,317.19,276.53,240.41,276.53,240.41ZM133.08,372.19a2.86,2.86,0,0,1-2.86-2.85V247.16c0-10.22,12.49-22.78,22.65-22.78h9.25c0,89.49,0,135.28,0,145a2.87,2.87,0,0,1-2.86,2.85Zm132.73-2.83a2.83,2.83,0,0,1-2.85,2.83H236.74a2.86,2.86,0,0,1-2.85-2.85V249.48A35.87,35.87,0,0,0,198,213.61H172.89V202.47c0-6.46,3.24-17.29,25-17.29,42.08,0,67.91,32.17,67.91,55.23C265.76,240.41,265.82,315.37,265.81,369.36Zm178.27-156H413.93A11.65,11.65,0,0,0,402.29,225V372H377.16a25.13,25.13,0,0,1-25.1-25.1V225a11.65,11.65,0,0,0-11.64-11.64H310.24A11.66,11.66,0,0,0,298.59,225c0,53.13.05,130.92.05,130.92,0,40.89,45.83,66,78.69,66,22,0,35.72-10.78,35.72-28.13V382.74h9.25c16.24,0,33.42-17.24,33.42-33.54V225A11.66,11.66,0,0,0,444.08,213.39Zm-41.8,180.49c0,6.46-3.24,17.29-24.95,17.29-42.08,0-67.92-32.16-67.92-55.22,0,0-.05-74.59-.05-129a2.84,2.84,0,0,1,2.86-2.83h26.21a2.86,2.86,0,0,1,2.86,2.86V346.87a35.87,35.87,0,0,0,35.87,35.87h25.13ZM445,349.2c0,10.21-12.49,22.77-22.65,22.77h-9.25c0-62.5,0-132.55,0-145a2.83,2.83,0,0,1,2.85-2.82H442.1A2.87,2.87,0,0,1,445,227Z"/></svg>